<?xml version="1.0" encoding="utf-8"?>
<!-- Generator: Adobe Illustrator 23.0.0, SVG Export Plug-In . SVG Version: 6.00 Build 0)  -->
<svg version="1.1" id="Layer_1" xmlns="http://www.w3.org/2000/svg" xmlns:xlink="http://www.w3.org/1999/xlink" x="0px" y="0px"
	 viewBox="0 0 1271.9 1256.3" style="enable-background:new 0 0 1271.9 1256.3;" xml:space="preserve">
<style type="text/css">
	.st0{clip-path:url(#SVGID_21_);}
	.st1{clip-path:url(#SVGID_22_);}
	.st2{clip-path:url(#SVGID_23_);}
	.st3{clip-path:url(#SVGID_24_);}
	.st4{clip-path:url(#SVGID_25_);}
	.st5{clip-path:url(#SVGID_26_);}
	.st6{clip-path:url(#SVGID_27_);}
	.st7{clip-path:url(#SVGID_28_);}
	.st8{clip-path:url(#SVGID_29_);}
	.st9{clip-path:url(#SVGID_30_);}
	.st10{clip-path:url(#SVGID_31_);}
	.st11{clip-path:url(#SVGID_32_);}
	.st12{clip-path:url(#SVGID_33_);}
	.st13{clip-path:url(#SVGID_34_);}
	.st14{clip-path:url(#SVGID_35_);}
	.st15{clip-path:url(#SVGID_36_);}
	.st16{clip-path:url(#SVGID_37_);}
	.st17{clip-path:url(#SVGID_38_);}
	.st18{clip-path:url(#SVGID_39_);}
</style>
<g>
	<defs>
		<polygon id="SVGID_1_" points="1271,407.6 1270.9,407.6 1067.3,203.8 1270.9,0 1271,0 1271,407.6 		"/>
	</defs>
	<defs>
		<polygon id="SVGID_2_" points="1272,831.9 1271.9,832 1068.3,628.1 1271.9,424.3 1272,424.4 1272,831.9 		"/>
	</defs>
	<defs>
		<polygon id="SVGID_3_" points="1272,1256.3 1271.9,1256.3 1068.3,1052.5 1271.9,848.7 1272,848.7 1272,1256.3 		"/>
	</defs>
	<defs>
		<polygon id="SVGID_4_" points="1060.9,1044.1 1060.8,1044.1 1060.8,636.6 1060.9,636.5 1264.6,840.3 1060.9,1044.1 		"/>
	</defs>
	<defs>
		<polygon id="SVGID_5_" points="1060.9,619.8 1060.8,619.7 1060.8,212.2 1060.9,212.2 1264.6,416 1060.9,619.8 		"/>
	</defs>
	<defs>
		<polygon id="SVGID_6_" points="1060.8,1044.1 857.2,840.3 1060.8,636.6 1060.8,1044.1 		"/>
	</defs>
	<defs>
		<polygon id="SVGID_7_" points="1060.8,619.7 857.2,416 1060.8,212.2 1060.8,619.7 		"/>
	</defs>
	<defs>
		<polygon id="SVGID_8_" points="1053,627.6 1053.2,627.8 849.5,831.6 645.8,627.8 645.9,627.6 1053,627.6 		"/>
	</defs>
	<defs>
		<polygon id="SVGID_9_" points="645.9,627.9 645.8,627.8 849.5,424 1053.2,627.8 1053,627.9 645.9,627.9 		"/>
	</defs>
	<defs>
		<polygon id="SVGID_10_" points="637.8,1044.1 637.8,636.5 841.5,840.3 637.8,1044.1 		"/>
	</defs>
	<defs>
		<polygon id="SVGID_11_" points="637.8,1044.1 434.2,840.3 637.8,636.5 637.8,1044.1 		"/>
	</defs>
	<defs>
		<polygon id="SVGID_12_" points="629,627.6 629.1,627.8 425.4,831.6 221.8,627.8 221.9,627.6 629,627.6 		"/>
	</defs>
	<defs>
		<polygon id="SVGID_13_" points="221.9,627.9 221.8,627.8 425.4,424 629.1,627.8 629,627.9 221.9,627.9 		"/>
	</defs>
	<defs>
		<polygon id="SVGID_14_" points="212.1,1044.1 212.1,636.6 415.7,840.3 212.1,1044.1 		"/>
	</defs>
	<defs>
		<polygon id="SVGID_15_" points="212.1,619.7 212.1,212.2 415.7,416 212.1,619.7 		"/>
	</defs>
	<defs>
		<polygon id="SVGID_16_" points="212.1,1044.1 212,1044.1 8.4,840.3 212,636.5 212.1,636.6 212.1,1044.1 		"/>
	</defs>
	<defs>
		<polygon id="SVGID_17_" points="212.1,619.7 212,619.8 8.4,416 212,212.2 212.1,212.2 212.1,619.7 		"/>
	</defs>
	<defs>
		<polygon id="SVGID_18_" points="0,1256.3 0,1256.3 0,848.7 0,848.7 203.7,1052.5 0,1256.3 		"/>
	</defs>
	<defs>
		<polygon id="SVGID_19_" points="0,832 0,831.9 0,424.4 0,424.3 203.7,628.1 0,832 		"/>
	</defs>
	<defs>
		<polygon id="SVGID_20_" points="0,407.6 0,407.6 0,0 0,0 203.7,203.8 0,407.6 		"/>
	</defs>
	<use xlink:href="#SVGID_1_"  style="overflow:visible;fill-rule:evenodd;clip-rule:evenodd;fill:#FF86C0;"/>
	<use xlink:href="#SVGID_2_"  style="overflow:visible;fill-rule:evenodd;clip-rule:evenodd;fill:#D93389;"/>
	<use xlink:href="#SVGID_3_"  style="overflow:visible;fill-rule:evenodd;clip-rule:evenodd;fill:#92278F;"/>
	<use xlink:href="#SVGID_4_"  style="overflow:visible;fill-rule:evenodd;clip-rule:evenodd;fill:#B41D8E;"/>
	<use xlink:href="#SVGID_5_"  style="overflow:visible;fill-rule:evenodd;clip-rule:evenodd;fill:#EF59A1;"/>
	<use xlink:href="#SVGID_6_"  style="overflow:visible;fill-rule:evenodd;clip-rule:evenodd;fill:#92278F;"/>
	<use xlink:href="#SVGID_7_"  style="overflow:visible;fill-rule:evenodd;clip-rule:evenodd;fill:#371466;"/>
	<use xlink:href="#SVGID_8_"  style="overflow:visible;fill-rule:evenodd;clip-rule:evenodd;fill:#702C91;"/>
	<use xlink:href="#SVGID_9_"  style="overflow:visible;fill-rule:evenodd;clip-rule:evenodd;fill:#562988;"/>
	<use xlink:href="#SVGID_10_"  style="overflow:visible;fill-rule:evenodd;clip-rule:evenodd;fill:#371466;"/>
	<use xlink:href="#SVGID_11_"  style="overflow:visible;fill-rule:evenodd;clip-rule:evenodd;fill:#272262;"/>
	<use xlink:href="#SVGID_12_"  style="overflow:visible;fill-rule:evenodd;clip-rule:evenodd;fill:#1D3D88;"/>
	<use xlink:href="#SVGID_13_"  style="overflow:visible;fill-rule:evenodd;clip-rule:evenodd;fill:#252F77;"/>
	<use xlink:href="#SVGID_14_"  style="overflow:visible;fill-rule:evenodd;clip-rule:evenodd;fill:#084F9D;"/>
	<use xlink:href="#SVGID_15_"  style="overflow:visible;fill-rule:evenodd;clip-rule:evenodd;fill:#272262;"/>
	<use xlink:href="#SVGID_16_"  style="overflow:visible;fill-rule:evenodd;clip-rule:evenodd;fill:#1B87C7;"/>
	<use xlink:href="#SVGID_17_"  style="overflow:visible;fill-rule:evenodd;clip-rule:evenodd;fill:#0CB699;"/>
	<use xlink:href="#SVGID_18_"  style="overflow:visible;fill-rule:evenodd;clip-rule:evenodd;fill:#0058A2;"/>
	<use xlink:href="#SVGID_19_"  style="overflow:visible;fill-rule:evenodd;clip-rule:evenodd;fill:#3BC3F3;"/>
	<use xlink:href="#SVGID_20_"  style="overflow:visible;fill-rule:evenodd;clip-rule:evenodd;fill:#0FE9C4;"/>
	<clipPath id="SVGID_21_">
		<use xlink:href="#SVGID_1_"  style="overflow:visible;"/>
	</clipPath>
	<clipPath id="SVGID_22_" class="st0">
		<use xlink:href="#SVGID_2_"  style="overflow:visible;"/>
	</clipPath>
	<clipPath id="SVGID_23_" class="st1">
		<use xlink:href="#SVGID_3_"  style="overflow:visible;"/>
	</clipPath>
	<clipPath id="SVGID_24_" class="st2">
		<use xlink:href="#SVGID_4_"  style="overflow:visible;"/>
	</clipPath>
	<clipPath id="SVGID_25_" class="st3">
		<use xlink:href="#SVGID_5_"  style="overflow:visible;"/>
	</clipPath>
	<clipPath id="SVGID_26_" class="st4">
		<use xlink:href="#SVGID_6_"  style="overflow:visible;"/>
	</clipPath>
	<clipPath id="SVGID_27_" class="st5">
		<use xlink:href="#SVGID_7_"  style="overflow:visible;"/>
	</clipPath>
	<clipPath id="SVGID_28_" class="st6">
		<use xlink:href="#SVGID_8_"  style="overflow:visible;"/>
	</clipPath>
	<clipPath id="SVGID_29_" class="st7">
		<use xlink:href="#SVGID_9_"  style="overflow:visible;"/>
	</clipPath>
	<clipPath id="SVGID_30_" class="st8">
		<use xlink:href="#SVGID_10_"  style="overflow:visible;"/>
	</clipPath>
	<clipPath id="SVGID_31_" class="st9">
		<use xlink:href="#SVGID_11_"  style="overflow:visible;"/>
	</clipPath>
	<clipPath id="SVGID_32_" class="st10">
		<use xlink:href="#SVGID_12_"  style="overflow:visible;"/>
	</clipPath>
	<clipPath id="SVGID_33_" class="st11">
		<use xlink:href="#SVGID_13_"  style="overflow:visible;"/>
	</clipPath>
	<clipPath id="SVGID_34_" class="st12">
		<use xlink:href="#SVGID_14_"  style="overflow:visible;"/>
	</clipPath>
	<clipPath id="SVGID_35_" class="st13">
		<use xlink:href="#SVGID_15_"  style="overflow:visible;"/>
	</clipPath>
	<clipPath id="SVGID_36_" class="st14">
		<use xlink:href="#SVGID_16_"  style="overflow:visible;"/>
	</clipPath>
	<clipPath id="SVGID_37_" class="st15">
		<use xlink:href="#SVGID_17_"  style="overflow:visible;"/>
	</clipPath>
	<clipPath id="SVGID_38_" class="st16">
		<use xlink:href="#SVGID_18_"  style="overflow:visible;"/>
	</clipPath>
	<clipPath id="SVGID_39_" class="st17">
		<use xlink:href="#SVGID_19_"  style="overflow:visible;"/>
	</clipPath>
	<clipPath id="SVGID_40_" class="st18">
		<use xlink:href="#SVGID_20_"  style="overflow:visible;"/>
	</clipPath>
</g>
</svg>
