<?xml version="1.0" encoding="utf-8"?>
<!-- Generator: Adobe Illustrator 23.0.0, SVG Export Plug-In . SVG Version: 6.00 Build 0)  -->
<svg version="1.1" id="Layer_1" xmlns="http://www.w3.org/2000/svg" xmlns:xlink="http://www.w3.org/1999/xlink" x="0px" y="0px"
	 viewBox="0 0 629.2 1256.3" style="enable-background:new 0 0 629.2 1256.3;" xml:space="preserve">
<style type="text/css">
	.st0{fill-rule:evenodd;clip-rule:evenodd;fill:#0FE9C4;}
</style>
<g>
	<g>
		<path class="st0" d="M9.1,840.3l203.7,203.8l203.7-203.8L212.8,636.5L9.1,840.3z M212.8,619.8L416.5,416L212.8,212.1L9.1,415.9
			L212.8,619.8z M425.5,423.9L221.8,627.7l203.7,203.8l203.7-203.8L425.5,423.9z M203.7,628.1L0,424.3l0,0v407.5l0,0L203.7,628.1z
			 M203.7,203.8L0,0l0,0v407.5l0,0L203.7,203.8z M0,848.7v407.5l0,0l203.7-203.8L0,848.7L0,848.7z"/>
	</g>
</g>
</svg>
