<?xml version="1.0" standalone="no"?>
<!DOCTYPE svg PUBLIC "-//W3C//DTD SVG 20010904//EN"
 "http://www.w3.org/TR/2001/REC-SVG-20010904/DTD/svg10.dtd">
<svg version="1.0" xmlns="http://www.w3.org/2000/svg"
 width="1256.000000pt" height="1256.000000pt" viewBox="0 0 1256.000000 1256.000000"
 preserveAspectRatio="xMidYMid meet">
<metadata>
Created by potrace 1.11, written by Peter Selinger 2001-2013
</metadata>
<g transform="translate(0.000000,1256.000000) scale(0.100000,-0.100000)"
fill="#000000" stroke="none">
<path d="M3140 10527 c0 -1120 3 -2037 8 -2037 4 0 464 457 1022 1015 l1015
1015 -1023 1023 -1022 1022 0 -2038z"/>
<path d="M4245 9423 c-555 -558 -1011 -1018 -1013 -1022 -1 -3 457 -465 1018
-1026 l1020 -1020 1022 1023 1023 1022 -1020 1020 c-561 561 -1024 1020 -1030
1019 -5 0 -464 -457 -1020 -1016z"/>
<path d="M3140 6280 l0 -2045 1022 1023 1023 1022 -1023 1022 -1022 1023 0
-2045z"/>
<path d="M6367 7302 l-1017 -1017 1023 -1023 1022 -1022 1018 1018 c559 559
1017 1022 1017 1027 0 13 -2022 2035 -2035 2035 -6 0 -468 -458 -1028 -1018z"/>
<path d="M4245 5180 l-1020 -1020 1023 -1023 1022 -1022 1022 1022 1023 1023
-1020 1020 c-561 561 -1022 1020 -1025 1020 -3 0 -464 -459 -1025 -1020z"/>
<path d="M3140 2040 l0 -2045 1022 1023 1023 1022 -1023 1022 -1022 1023 0
-2045z"/>
</g>
</svg>
